<?xml version="1.0" encoding="UTF-8" standalone="no"?>
<svg
   width="16"
   height="16"
   fill="currentColor"
   class="bi bi-building"
   viewBox="0 0 16 16"
   version="1.1"
   id="svg6"
   sodipodi:docname="building.svg"
   inkscape:version="1.1.2 (b8e25be833, 2022-02-05)"
   xmlns:inkscape="http://www.inkscape.org/namespaces/inkscape"
   xmlns:sodipodi="http://sodipodi.sourceforge.net/DTD/sodipodi-0.dtd"
   xmlns="http://www.w3.org/2000/svg"
   xmlns:svg="http://www.w3.org/2000/svg">
  <defs
     id="defs10" />
  <sodipodi:namedview
     id="namedview8"
     pagecolor="#ffffff"
     bordercolor="#666666"
     borderopacity="1.0"
     inkscape:pageshadow="2"
     inkscape:pageopacity="0.0"
     inkscape:pagecheckerboard="0"
     showgrid="false"
     inkscape:zoom="51.4375"
     inkscape:cx="8"
     inkscape:cy="8.0097205"
     inkscape:window-width="1920"
     inkscape:window-height="1009"
     inkscape:window-x="-8"
     inkscape:window-y="-8"
     inkscape:window-maximized="1"
     inkscape:current-layer="svg6" />
  <path
     fill-rule="evenodd"
     d="M14.763.075A.5.5 0 0 1 15 .5v15a.5.5 0 0 1-.5.5h-3a.5.5 0 0 1-.5-.5V14h-1v1.5a.5.5 0 0 1-.5.5h-9a.5.5 0 0 1-.5-.5V10a.5.5 0 0 1 .342-.474L6 7.64V4.5a.5.5 0 0 1 .276-.447l8-4a.5.5 0 0 1 .487.022zM6 8.694 1 10.36V15h5V8.694zM7 15h2v-1.5a.5.5 0 0 1 .5-.5h2a.5.5 0 0 1 .5.5V15h2V1.309l-7 3.5V15z"
     id="path2"
     style="fill:#275949;fill-opacity:1" />
  <path
     d="M2 11h1v1H2v-1zm2 0h1v1H4v-1zm-2 2h1v1H2v-1zm2 0h1v1H4v-1zm4-4h1v1H8V9zm2 0h1v1h-1V9zm-2 2h1v1H8v-1zm2 0h1v1h-1v-1zm2-2h1v1h-1V9zm0 2h1v1h-1v-1zM8 7h1v1H8V7zm2 0h1v1h-1V7zm2 0h1v1h-1V7zM8 5h1v1H8V5zm2 0h1v1h-1V5zm2 0h1v1h-1V5zm0-2h1v1h-1V3z"
     id="path4"
     style="fill:#275949;fill-opacity:1" />
</svg>
