<?xml version="1.0" encoding="UTF-8" standalone="no"?>
<svg
   width="16"
   height="16"
   fill="currentColor"
   class="bi bi-phone"
   viewBox="0 0 16 16"
   version="1.1"
   id="svg6"
   sodipodi:docname="phone.svg"
   inkscape:version="1.1.2 (b8e25be833, 2022-02-05)"
   xmlns:inkscape="http://www.inkscape.org/namespaces/inkscape"
   xmlns:sodipodi="http://sodipodi.sourceforge.net/DTD/sodipodi-0.dtd"
   xmlns="http://www.w3.org/2000/svg"
   xmlns:svg="http://www.w3.org/2000/svg">
  <defs
     id="defs10" />
  <sodipodi:namedview
     id="namedview8"
     pagecolor="#ffffff"
     bordercolor="#666666"
     borderopacity="1.0"
     inkscape:pageshadow="2"
     inkscape:pageopacity="0.0"
     inkscape:pagecheckerboard="0"
     showgrid="false"
     inkscape:zoom="51.4375"
     inkscape:cx="4.1701094"
     inkscape:cy="8.0097205"
     inkscape:window-width="1920"
     inkscape:window-height="1009"
     inkscape:window-x="-8"
     inkscape:window-y="-8"
     inkscape:window-maximized="1"
     inkscape:current-layer="svg6" />
  <path
     d="M11 1a1 1 0 0 1 1 1v12a1 1 0 0 1-1 1H5a1 1 0 0 1-1-1V2a1 1 0 0 1 1-1h6zM5 0a2 2 0 0 0-2 2v12a2 2 0 0 0 2 2h6a2 2 0 0 0 2-2V2a2 2 0 0 0-2-2H5z"
     id="path2"
     style="fill:#275949;fill-opacity:1" />
  <path
     d="M8 14a1 1 0 1 0 0-2 1 1 0 0 0 0 2z"
     id="path4"
     style="fill:#275949;fill-opacity:1" />
</svg>
